<svg xmlns="http://www.w3.org/2000/svg" width="512" height="512" viewBox="0 0 512 512">
<g transform="translate(0,512) scale(0.1,-0.1)" fill="#F97316" stroke="none">
<path d="M0 2560 l0 -2560 2560 0 2560 0 0 2560 0 2560 -2560 0 -2560 0 0
-2560z m2609 1940 c11 -25 21 -61 21 -81 l0 -36 108 -47 c111 -48 262 -134
263 -150 0 -5 -28 -21 -63 -35 l-63 -27 -1 -97 c0 -97 0 -98 25 -103 58 -11
76 -28 77 -69 0 -22 4 -50 8 -61 4 -14 1 -27 -9 -38 -14 -14 -14 -18 -1 -39
14 -20 14 -25 1 -44 -8 -12 -31 -27 -50 -33 -33 -11 -35 -14 -35 -54 0 -128
79 -753 150 -1194 11 -67 20 -125 20 -127 0 -3 19 -5 43 -5 23 0 51 -7 61 -15
11 -8 73 -35 139 -61 136 -53 129 -44 168 -206 12 -54 27 -98 32 -98 6 0 41 9
79 21 39 11 76 18 84 15 7 -3 59 -38 116 -78 l102 -73 53 -114 c30 -63 52
-118 51 -123 -5 -14 -121 137 -132 170 -6 18 -40 50 -111 99 -99 70 -104 72
-136 62 -80 -25 -87 -30 -93 -62 -4 -18 -11 -39 -16 -47 -8 -13 -11 -12 -25 5
-29 36 -44 81 -61 181 -22 135 -35 159 -92 180 -26 9 -77 30 -114 46 l-68 29
-66 -16 c-80 -18 -112 -36 -142 -78 l-22 -32 52 -3 c34 -2 81 6 133 22 55 16
84 21 93 14 15 -13 16 -69 1 -118 l-11 -37 -67 26 c-58 22 -81 25 -196 25
-146 1 -246 -21 -402 -87 -85 -36 -100 -36 -60 0 40 37 137 78 257 108 76 20
100 38 100 77 0 59 -134 152 -236 164 -36 5 -64 1 -109 -16 -33 -12 -69 -21
-79 -21 -25 0 -66 -22 -90 -48 -23 -25 -40 -28 -27 -3 5 9 12 38 16 63 9 58
-11 104 -66 153 -46 42 -149 96 -181 95 -13 0 -66 -21 -118 -47 l-95 -47 -100
-250 c-55 -138 -115 -273 -133 -301 -33 -52 -69 -91 -76 -83 -5 4 10 83 38
214 18 80 21 165 6 165 -18 0 -129 -48 -158 -68 -22 -16 -35 -45 -67 -141 -36
-113 -41 -121 -65 -121 -14 0 -43 -2 -65 -5 l-40 -5 40 14 c40 13 40 13 73
122 19 60 38 119 43 131 6 16 52 44 150 94 135 67 144 70 181 61 36 -9 40 -8
48 11 5 12 24 60 43 107 l34 85 124 62 c68 34 132 62 142 62 10 1 31 -6 47
-14 l28 -15 6 48 c29 232 97 870 103 958 l6 111 -37 13 c-20 6 -44 23 -53 36
-15 23 -14 26 6 48 l21 23 -25 11 c-32 15 -32 27 0 48 32 21 31 33 -2 60 l-27
21 29 15 c17 9 47 18 68 22 l37 7 0 98 0 99 -62 22 c-35 13 -67 26 -71 30 -12
11 239 149 335 185 43 16 47 20 42 44 -4 17 4 50 20 88 14 34 28 81 32 105 10
74 16 75 29 8 7 -36 23 -85 34 -110z m-988 -310 c304 -49 559 -90 566 -90 9 0
13 -15 13 -49 l0 -48 -102 -22 c-530 -111 -1114 -226 -1116 -220 -3 8 45 444
54 492 3 15 11 27 19 27 7 0 261 -40 566 -90z m2459 83 c0 -5 14 -109 30 -233
16 -124 30 -239 30 -256 l0 -32 -162 33 c-90 18 -354 72 -588 119 -234 47
-435 88 -448 91 -21 5 -23 11 -20 53 l3 47 200 33 c475 79 912 150 933 151 12
0 22 -2 22 -6z m-1889 -2331 c-22 -41 -74 -81 -115 -87 -55 -9 -119 -38 -165
-74 -32 -25 -118 -57 -128 -47 -7 7 120 118 149 130 18 8 62 17 98 21 64 7
127 34 143 61 12 22 30 18 18 -4z m1171 -322 c21 -6 58 -26 82 -45 56 -42 99
-65 125 -65 26 0 81 -47 81 -69 0 -10 -9 -26 -20 -36 -19 -17 -21 -16 -91 43
-146 124 -212 133 -424 60 -71 -25 -150 -55 -173 -67 -107 -54 -15 27 103 91
83 46 161 78 209 88 58 11 66 11 108 0z m-1707 -250 c-3 -5 -14 -10 -23 -10
-9 0 -48 -16 -85 -35 -38 -19 -78 -35 -90 -35 -22 0 -22 1 3 21 43 34 79 50
138 58 31 5 58 9 60 10 2 0 0 -3 -3 -9z m531 -169 c38 -11 143 -38 234 -61 91
-23 219 -58 286 -80 143 -45 290 -77 434 -94 l105 -12 -117 -8 c-311 -21 -647
48 -891 183 -88 49 -171 108 -136 98 9 -3 47 -15 85 -26z"/>
<path d="M2321 4269 c-58 -11 -78 -21 -26 -13 22 4 96 10 165 14 l125 7 -110
0 c-60 1 -130 -3 -154 -8z"/>
<path d="M2490 4076 l0 -114 71 -4 c45 -2 73 1 76 8 2 6 2 57 1 115 l-3 104
-72 3 -73 3 0 -115z"/>
<path d="M2343 4163 c-22 -4 -23 -8 -23 -111 l0 -107 45 3 45 4 0 109 c0 120
3 116 -67 102z"/>
<path d="M2720 4060 c0 -87 3 -110 14 -110 7 0 28 -3 45 -6 l31 -6 0 106 c0
105 0 107 -26 116 -62 24 -64 21 -64 -100z"/>
<path d="M2310 3854 c0 -25 2 -26 38 -20 20 3 75 11 121 18 107 15 84 26 -56
27 l-103 1 0 -26z"/>
<path d="M2221 3860 c-34 -8 -37 -28 -7 -41 31 -14 39 -9 34 23 -2 20 -7 23
-27 18z"/>
<path d="M2880 3835 c0 -28 8 -31 35 -12 21 16 12 37 -16 37 -14 0 -19 -7 -19
-25z"/>
<path d="M2400 3809 c-168 -22 -144 -27 125 -28 149 -1 288 -4 310 -6 l40 -5
-37 14 c-79 31 -297 43 -438 25z"/>
<path d="M2205 3767 c-23 -17 -12 -37 21 -37 19 0 24 5 24 25 0 28 -17 32 -45
12z"/>
<path d="M2880 3750 c0 -13 7 -20 19 -20 28 0 35 17 12 29 -27 15 -31 14 -31
-9z"/>
<path d="M2405 3630 c-102 -18 -95 -11 -95 -96 0 -69 2 -75 18 -69 9 4 62 13
117 21 110 16 245 7 325 -21 23 -8 45 -15 48 -15 12 0 -6 143 -19 151 -46 28
-297 47 -394 29z"/>
<path d="M2435 3253 c-16 -2 -60 -13 -97 -24 -78 -23 -74 -12 -83 -198 l-7
-124 29 6 c15 4 84 14 153 23 105 15 139 16 225 6 55 -6 129 -20 164 -31 l64
-20 -7 97 c-14 203 -12 198 -65 220 -25 11 -71 25 -101 31 -60 12 -227 20
-275 14z m365 -190 c0 -46 -3 -54 -16 -49 -9 3 -20 6 -25 6 -5 0 -9 24 -9 54
0 51 1 53 25 48 23 -4 25 -9 25 -59z"/>
<path d="M2410 2652 c-19 -2 -72 -14 -117 -28 l-81 -24 -7 -41 c-4 -23 -3 -45
1 -49 14 -13 300 -124 384 -150 83 -24 153 -57 219 -103 l43 -29 -6 38 c-3 22
-10 107 -17 189 -6 83 -12 151 -14 153 -2 2 -45 11 -96 22 -92 18 -240 29
-309 22z"/>
</g>
</svg>
